#!OML:ASF C:\Vicon Data\Big\jianyuan-12\jianyuan\Session 1\Capture.male.ASF
:FULLY-SPECIFIED
:DEGREES
195
root -11.372722 16.864155 -9.894800 1.662495 -29.515326 11.713608
lowerback -9.138133 -2.375232 -10.078436 
upperback 1.687690 -1.782023 -2.492727 
thorax 7.201084 -1.213338 2.733562 
lowerneck -1.784699 -5.703409 -6.377817 
upperneck 8.000197 -7.846979 6.637156 
head 3.535965 -3.859478 3.047928 
rclavicle 0.000000 0.000000 
rhumerus -41.440205 -29.190545 -76.047146 
rradius 34.398582 
rwrist 37.990352 
rhand -22.448798 -4.332784 
rfingers 0.000000 
rthumb 3.975379 -34.275447 
lclavicle 0.000000 0.000000 
lhumerus -26.616933 33.993963 76.995732 
lradius 28.126873 
lwrist -50.607218 
lhand -11.039239 4.157846 
lfingers 0.000000 
lthumb 14.982674 33.595828 
rfemur -34.041080 -9.922711 11.598749 
rtibia 71.325829 
rfoot -15.991546 -8.885053 
rtoes -14.745328 
lfemur -15.257727 -2.316264 -31.832614 
ltibia 23.400897 
lfoot -21.838413 3.171207 
ltoes -10.427311 
196
root -11.394411 16.857284 -9.836130 1.668715 -29.555011 11.585465
lowerback -9.030719 -2.415006 -9.986168 
upperback 1.750287 -1.862478 -2.410823 
thorax 7.215929 -1.254047 2.758087 
lowerneck -1.929039 -5.682269 -6.467068 
upperneck 8.049400 -7.807916 6.615659 
head 3.581648 -3.841042 3.055489 
rclavicle 0.000000 0.000000 
rhumerus -41.382126 -29.208894 -76.004806 
rradius 34.423251 
rwrist 37.891405 
rhand -22.138343 -4.267847 
rfingers 0.000000 
rthumb 4.275153 -34.204631 
lclavicle 0.000000 0.000000 
lhumerus -25.980308 33.428125 77.560988 
lradius 28.421769 
lwrist -50.176219 
lhand -11.057387 4.015981 
lfingers 0.000000 
lthumb 14.965199 33.455294 
rfemur -34.535954 -9.815535 11.814188 
rtibia 70.718565 
rfoot -16.251953 -8.691740 
rtoes -15.014823 
lfemur -15.053093 -2.447284 -31.761976 
ltibia 23.599933 
lfoot -22.238532 3.276937 
ltoes -10.462546 
197
root -11.418043 16.849397 -9.779213 1.813524 -29.620200 11.597262
lowerback -9.113094 -2.475812 -10.086928 
upperback 1.678941 -1.930445 -2.353777 
thorax 7.201108 -1.289956 2.862636 
lowerneck -1.791002 -5.654549 -6.458015 
upperneck 8.040949 -7.771955 6.552646 
head 3.545154 -3.827318 3.036970 
rclavicle 0.000000 0.000000 
rhumerus -41.546538 -29.177255 -75.912941 
rradius 34.502981 
rwrist 37.776046 
rhand -22.120830 -4.268989 
rfingers 0.000000 
rthumb 4.292081 -34.205517 
lclavicle 0.000000 0.000000 
lhumerus -25.526153 32.415650 78.122359 
lradius 28.813200 
lwrist -49.197064 
lhand -11.184343 4.189495 
lfingers 0.000000 
lthumb 14.842872 33.637903 
rfemur -35.289201 -9.726378 11.938687 
rtibia 70.077145 
rfoot -16.508589 -8.508726 
rtoes -15.322548 
lfemur -15.076374 -2.401905 -31.812705 
ltibia 23.773517 
lfoot -22.524209 3.223939 
ltoes -10.585345 
198
root -11.440385 16.842076 -9.724364 1.788590 -29.589570 11.521665
lowerback -8.858663 -2.521852 -10.015399 
upperback 1.618170 -2.038193 -2.355886 
thorax 6.999462 -1.330344 2.814328 
lowerneck -1.617699 -5.606520 -6.383505 
upperneck 8.029242 -7.715665 6.520681 
head 3.497469 -3.801015 3.018973 
rclavicle 0.000000 0.000000 
rhumerus -41.848393 -29.186521 -75.824226 
rradius 34.595954 
rwrist 37.791386 
rhand -22.289246 -4.518008 
rfingers 0.000000 
rthumb 4.129471 -34.457687 
lclavicle 0.000000 0.000000 
lhumerus -25.160301 31.412378 78.459215 
lradius 29.208422 
lwrist -48.219899 
lhand -11.070144 4.112266 
lfingers 0.000000 
lthumb 14.952896 33.552447 
rfemur -35.721332 -9.645686 12.107675 
rtibia 69.349502 
rfoot -16.810667 -8.332521 
rtoes -15.723410 
lfemur -14.879885 -2.466764 -31.784440 
ltibia 23.982440 
lfoot -22.814966 3.220657 
ltoes -10.700386 
199
root -11.465628 16.833001 -9.667542 1.835476 -29.592353 11.449963
lowerback -8.786007 -2.582979 -9.985284 
upperback 1.649665 -2.134567 -2.303633 
thorax 7.004681 -1.378980 2.839223 
lowerneck -1.722879 -5.580886 -6.468391 
upperneck 8.078057 -7.678902 6.575561 
head 3.539871 -3.781781 3.053284 
rclavicle 0.000000 0.000000 
rhumerus -41.847262 -29.217684 -75.813329 
rradius 34.654571 
rwrist 37.723444 
rhand -22.269337 -4.636653 
rfingers 0.000000 
rthumb 4.148716 -34.575971 
lclavicle 0.000000 0.000000 
lhumerus -24.507760 31.033760 78.936579 
lradius 29.464397 
lwrist -48.028670 
lhand -10.981702 4.101412 
lfingers 0.000000 
lthumb 15.038098 33.535252 
rfemur -36.220188 -9.535367 12.287825 
rtibia 68.560547 
rfoot -17.127647 -8.400704 
rtoes -16.767670 
lfemur -14.736103 -2.537654 -31.757199 
ltibia 24.154977 
lfoot -23.132681 3.255626 
ltoes -10.808483 
200
root -11.489260 16.824834 -9.610869 1.951649 -29.619755 11.326713
lowerback -8.782545 -2.637877 -9.910683 
upperback 1.707196 -2.218801 -2.227352 
thorax 7.075096 -1.423930 2.863647 
lowerneck -1.935643 -5.571488 -6.470019 
upperneck 8.124437 -7.650900 6.489758 
head 3.589764 -3.767104 3.019899 
rclavicle 0.000000 0.000000 
rhumerus -41.746676 -29.342315 -75.770488 
rradius 34.584803 
rwrist 37.814806 
rhand -22.226049 -4.411413 
rfingers 0.000000 
rthumb 4.190525 -34.349935 
lclavicle 0.000000 0.000000 
lhumerus -23.890016 30.238281 79.491620 
lradius 29.874101 
lwrist -47.164410 
lhand -11.013673 4.242736 
lfingers 0.000000 
lthumb 15.007298 33.678914 
rfemur -36.736151 -9.422223 12.524961 
rtibia 67.682482 
rfoot -17.479545 -8.425489 
rtoes -17.117439 
lfemur -14.644051 -2.617473 -31.680496 
ltibia 24.318102 
lfoot -23.402889 3.287730 
ltoes -10.879989 
201
root -11.514565 16.817168 -9.553219 1.917105 -29.641232 11.352677
lowerback -8.680967 -2.671944 -9.954169 
upperback 1.688795 -2.272345 -2.242585 
thorax 7.005276 -1.448181 2.867369 
lowerneck -1.788092 -5.540468 -6.364655 
upperneck 8.081271 -7.616384 6.454562 
head 3.535718 -3.750426 2.993221 
rclavicle 0.000000 0.000000 
rhumerus -41.956438 -29.522198 -75.667979 
rradius 34.606996 
rwrist 37.892734 
rhand -22.348269 -4.475094 
rfingers 0.000000 
rthumb 4.072472 -34.415892 
lclavicle 0.000000 0.000000 
lhumerus -23.506650 29.222575 79.795106 
lradius 30.233367 
lwrist -46.325076 
lhand -11.072426 4.213574 
lfingers 0.000000 
lthumb 14.950720 33.653933 
rfemur -37.111101 -9.320143 12.584400 
rtibia 66.733424 
rfoot -17.792184 -8.367362 
rtoes -16.835014 
lfemur -14.458727 -2.681699 -31.744417 
ltibia 24.503624 
lfoot -23.701926 3.266293 
ltoes -10.996847 
202
root -11.542713 16.809736 -9.495682 1.946485 -29.671916 11.193301
lowerback -8.572566 -2.689226 -9.864366 
upperback 1.697864 -2.322518 -2.199491 
thorax 6.956365 -1.469133 2.859467 
lowerneck -1.689944 -5.518515 -6.335603 
upperneck 8.066332 -7.593253 6.468457 
head 3.509140 -3.739243 2.996147 
rclavicle 0.000000 0.000000 
rhumerus -42.116655 -29.668520 -75.573551 
rradius 34.620198 
rwrist 37.949698 
rhand -22.423373 -4.658044 
rfingers 0.000000 
rthumb 3.999961 -34.600251 
lclavicle 0.000000 0.000000 
lhumerus -23.037933 28.524722 80.110026 
lradius 30.505086 
lwrist -45.938339 
lhand -11.063218 4.050837 
lfingers 0.000000 
lthumb 14.959604 33.490574 
rfemur -37.420675 -9.190349 12.854687 
rtibia 65.696300 
rfoot -18.080623 -8.503327 
rtoes -17.116929 
lfemur -14.238767 -2.773970 -31.624543 
ltibia 24.676343 
lfoot -24.134775 3.383491 
ltoes -11.356824 
203
root -11.568058 16.799772 -9.437021 1.993282 -29.665630 11.041006
lowerback -8.485785 -2.740162 -9.786740 
upperback 1.778195 -2.414540 -2.075541 
thorax 7.006446 -1.519210 2.934120 
lowerneck -1.926322 -5.513343 -6.498103 
upperneck 8.124371 -7.566869 6.432038 
head 3.579665 -3.728535 3.009488 
rclavicle 0.000000 0.000000 
rhumerus -42.036432 -29.736448 -75.423845 
rradius 34.524849 
rwrist 38.156387 
rhand -22.285948 -4.269087 
rfingers 0.000000 
rthumb 4.132633 -34.208747 
lclavicle 0.000000 0.000000 
lhumerus -22.377055 28.204435 80.645527 
lradius 30.752615 
lwrist -45.582159 
lhand -11.179196 4.011732 
lfingers 0.000000 
lthumb 14.847945 33.459756 
rfemur -37.704686 -9.122555 13.094151 
rtibia 64.621536 
rfoot -18.475639 -8.637893 
rtoes -16.712275 
lfemur -14.029880 -2.863308 -31.526564 
ltibia 24.816701 
lfoot -24.476316 3.458533 
ltoes -11.514145 
204
root -11.593141 16.793221 -9.379425 2.141430 -29.788939 11.026597
lowerback -8.553172 -2.750946 -9.814207 
upperback 1.702972 -2.425431 -2.038705 
thorax 6.968291 -1.522863 2.986517 
lowerneck -1.806993 -5.516888 -6.462711 
upperneck 8.128507 -7.574211 6.371722 
head 3.553289 -3.734871 2.984219 
rclavicle 0.000000 0.000000 
rhumerus -42.238174 -29.843494 -75.237601 
rradius 34.576730 
rwrist 38.262148 
rhand -22.088476 -4.197028 
rfingers 0.000000 
rthumb 4.323327 -34.132879 
lclavicle 0.000000 0.000000 
lhumerus -22.150120 27.221444 80.952035 
lradius 31.272943 
lwrist -44.590690 
lhand -11.184239 4.119381 
lfingers 0.000000 
lthumb 14.843078 33.567723 
rfemur -38.230748 -8.894445 13.214525 
rtibia 63.514005 
rfoot -18.707579 -8.793575 
rtoes -17.220622 
lfemur -14.004674 -2.832453 -31.546724 
ltibia 24.920152 
lfoot -24.713871 3.437261 
ltoes -11.453678 
205
root -11.620027 16.790059 -9.321887 2.162346 -29.804522 11.039385
lowerback -8.563421 -2.803143 -9.818592 
upperback 1.748712 -2.489436 -2.044831 
thorax 7.031972 -1.557805 2.970121 
lowerneck -1.908694 -5.489778 -6.480596 
upperneck 8.168191 -7.536943 6.412237 
head 3.587187 -3.713864 3.001218 
rclavicle 0.000000 0.000000 
rhumerus -42.291130 -29.965495 -75.261499 
rradius 34.660881 
rwrist 37.990736 
rhand -22.343638 -4.496420 
rfingers 0.000000 
rthumb 4.076963 -34.437153 
lclavicle 0.000000 0.000000 
lhumerus -21.623112 26.657280 81.242083 
lradius 31.565544 
lwrist -44.117789 
lhand -11.137967 4.058821 
lfingers 0.000000 
lthumb 14.887575 33.503910 
rfemur -38.532036 -8.786242 13.287010 
rtibia 62.334054 
rfoot -18.739361 -8.908554 
rtoes -16.969692 
lfemur -13.807430 -2.850161 -31.591746 
ltibia 24.970956 
lfoot -24.943586 3.416936 
ltoes -11.408138 
206
root -11.646410 16.782968 -9.264781 2.073890 -29.797154 10.980615
lowerback -8.363268 -2.828661 -9.807289 
upperback 1.782505 -2.550731 -2.007178 
thorax 6.962563 -1.587185 3.001195 
lowerneck -1.872505 -5.469810 -6.511865 
upperneck 8.171036 -7.512342 6.435570 
head 3.582445 -3.702480 3.017335 
rclavicle 0.000000 0.000000 
rhumerus -42.343913 -30.105428 -75.131464 
rradius 34.520418 
rwrist 38.005380 
rhand -22.518231 -4.530399 
rfingers 0.000000 
rthumb 3.908307 -34.474272 
lclavicle 0.000000 0.000000 
lhumerus -21.223031 26.125016 81.522517 
lradius 31.828501 
lwrist -43.861146 
lhand -11.241526 3.966496 
lfingers 0.000000 
lthumb 14.787783 33.418911 
rfemur -38.635402 -8.634430 13.376945 
rtibia 61.104335 
rfoot -19.017328 -8.978388 
rtoes -16.815119 
lfemur -13.416035 -3.013599 -31.581593 
ltibia 24.933529 
lfoot -25.196016 3.570016 
ltoes -11.478246 
207
root -11.674697 16.777531 -9.206217 2.145198 -29.869564 10.912387
lowerback -8.326072 -2.818193 -9.757286 
upperback 1.750540 -2.550282 -1.996169 
thorax 6.904272 -1.582302 2.988077 
lowerneck -1.760475 -5.473578 -6.355272 
upperneck 8.116147 -7.518843 6.326817 
head 3.527320 -3.706305 2.952421 
rclavicle 0.000000 0.000000 
rhumerus -42.566009 -30.302598 -74.982338 
rradius 34.548342 
rwrist 38.034667 
rhand -22.411577 -4.429405 
rfingers 0.000000 
rthumb 4.011339 -34.371374 
lclavicle 0.000000 0.000000 
lhumerus -20.955740 25.333602 81.736910 
lradius 32.252578 
lwrist -43.156945 
lhand -11.222737 3.983085 
lfingers 0.000000 
lthumb 14.805899 33.434206 
rfemur -38.870248 -8.469124 13.499604 
rtibia 59.784740 
rfoot -19.157394 -9.113641 
rtoes -16.724936 
lfemur -13.165575 -3.076254 -31.552445 
ltibia 24.859353 
lfoot -25.418515 3.670777 
ltoes -11.625039 
